HIERARCHY
ROOT root
{
	OFFSET	0	13.1	24.9
	CHANNELS 6  Xposition Yposition Zposition Xrotation Yrotation Zrotation
	JOINT spine_1
	{
		OFFSET	0	9.99999	0
		CHANNELS 3  Xrotation Yrotation Zrotation
		JOINT spine_2
		{
			OFFSET	0	112	-10
			CHANNELS 3  Xrotation Yrotation Zrotation
			JOINT spine_3
			{
				OFFSET	0	206.5	19.3
				CHANNELS 3  Xrotation Yrotation Zrotation
				JOINT spine_4
				{
					OFFSET	0	110.4	14.6
					CHANNELS 3  Xrotation Yrotation Zrotation
					JOINT neck_1
					{
						OFFSET	0	71.8	-50.3
						CHANNELS 3  Xrotation Yrotation Zrotation
						JOINT neck_2
						{
							OFFSET	0	86.2	-25.8
							CHANNELS 3  Xrotation Yrotation Zrotation
							JOINT head_ee
							{
								OFFSET	0	179.8	-8.7
								CHANNELS 3  Xrotation Yrotation Zrotation
								End Site
								{
									OFFSET	1	0	0
								}
							}
						}
					}
					JOINT left_clavicle
					{
						OFFSET	-43.2	22.4	-70.8
						CHANNELS 3  Xrotation Yrotation Zrotation
						JOINT left_shoulder
						{
							OFFSET	-93.9	-5.79999	48.7
							CHANNELS 3  Xrotation Yrotation Zrotation
							JOINT left_elbow
							{
								OFFSET	-291.4	-30.8	15.2
								CHANNELS 3  Xrotation Yrotation Zrotation
								JOINT left_lowarm_twist
								{
									OFFSET	-110.7	-3.89999	13.6
									CHANNELS 3  Xrotation Yrotation Zrotation
									JOINT left_hand
									{
										OFFSET	-110.7	-3.89999	13.6
										CHANNELS 3  Xrotation Yrotation Zrotation
										JOINT left_ee
										{
											OFFSET	-80.8	-5.10001	12.1
											CHANNELS 3  Xrotation Yrotation Zrotation
											End Site
											{
												OFFSET	1	0	0
											}
										}
									}
								}
							}
						}
					}
					JOINT right_clavicle
					{
						OFFSET	43.2	22.4	-70.8
						CHANNELS 3  Xrotation Yrotation Zrotation
						JOINT right_shoulder
						{
							OFFSET	93.9	-5.79999	48.7
							CHANNELS 3  Xrotation Yrotation Zrotation
							JOINT right_elbow
							{
								OFFSET	291.4	-30.8	15.2
								CHANNELS 3  Xrotation Yrotation Zrotation
								JOINT right_lowarm_twist
								{
									OFFSET	110.7	-3.89999	13.6
									CHANNELS 3  Xrotation Yrotation Zrotation
									JOINT right_hand
									{
										OFFSET	110.7	-3.89999	13.6
										CHANNELS 3  Xrotation Yrotation Zrotation
										JOINT right_ee
										{
											OFFSET	80.8	-5.10001	12.1
											CHANNELS 3  Xrotation Yrotation Zrotation
											End Site
											{
												OFFSET	1	0	0
											}
										}
									}
								}
							}
						}
					}
				}
			}
		}
	}
	JOINT left_hip
	{
		OFFSET	-82.8	-127.5	0.300001
		CHANNELS 3  Xrotation Yrotation Zrotation
		JOINT left_knee
		{
			OFFSET	-28.2	-396.7	2.2
			CHANNELS 3  Xrotation Yrotation Zrotation
			JOINT left_ankle
			{
				OFFSET	-11.7	-411.3	35.4
				CHANNELS 3  Xrotation Yrotation Zrotation
				JOINT left_toes
				{
					OFFSET	0	-60	-88.6
					CHANNELS 3  Xrotation Yrotation Zrotation
					JOINT left_foot_ee
					{
						OFFSET	-22.5	-16.5	-42.2
						CHANNELS 3  Xrotation Yrotation Zrotation
						End Site
						{
							OFFSET	1	0	0
						}
					}
				}
			}
		}
	}
	JOINT right_hip
	{
		OFFSET	82.8	-127.5	0.300001
		CHANNELS 3  Xrotation Yrotation Zrotation
		JOINT right_knee
		{
			OFFSET	28.2	-396.7	2.2
			CHANNELS 3  Xrotation Yrotation Zrotation
			JOINT right_ankle
			{
				OFFSET	11.7	-411.3	35.4
				CHANNELS 3  Xrotation Yrotation Zrotation
				JOINT right_toes
				{
					OFFSET	0	-60	-88.6
					CHANNELS 3  Xrotation Yrotation Zrotation
					JOINT right_foot_ee
					{
						OFFSET	22.5	-16.5	-42.2
						CHANNELS 3  Xrotation Yrotation Zrotation
						End Site
						{
							OFFSET	1	0	0
						}
					}
				}
			}
		}
	}
}
MOTION
Frames: 8
Frame Time: 0.02
1069.01 723.159 -1420.89 -2.372 82.2206 -0.564246 1.76968 0.319908 2.07396 1.77205 0.187318 2.0901 1.77899 -0.191416 2.08973 1.77292 0.140945 2.09374 -10.652 11.6682 -4.51579 -10.8403 25.0072 -1.27616 -0.0 0.0 -0.0 0.519137 22.8509 3.36703 -15.8195 -30.426 58.1004 0.513749 -14.2786 0.0643493 -44.3189 -3.42174 4.3533 0.381788 8.80887 6.1298 -0.0 0.0 -0.0 10.4371 -6.18768 -20.0912 -17.3199 43.7647 -62.0703 1.10131 28.6142 -0.280874 21.4379 -0.250791 2.71107 -1.2214 -0.512494 7.95495 0.0 0.0 0.0 2.22389 4.16063 -2.49531 -22.9146 0.24965 3.48418 30.821 11.5096 -3.99322 -33.2727 0.0 0.0 -0.0 0.0 -0.0 -0.436042 4.12637 -4.30536 2.25901 0.0995955 0.332307 24.034 -3.36762 3.22356 -8.1623 0.0 0.0 0.0 0.0 0.0 
1066.04 717.046 -1420.8 -4.38294 84.5234 1.74823 1.82007 0.256709 1.85766 1.82198 0.138002 1.87022 1.82652 -0.198867 1.86473 1.82168 0.0980751 1.87274 -13.5244 12.0667 -3.60353 -13.9663 25.2012 0.415652 -0.0 0.0 -0.0 -0.0480203 20.7396 2.34493 -13.1872 -30.0052 61.3703 0.344367 -9.68105 0.0291627 -43.0157 -3.27744 4.26874 1.32844 8.5424 12.2274 -0.0 0.0 -0.0 10.2625 -5.88454 -19.7759 -15.5779 42.8081 -61.813 1.08452 28.2457 -0.27288 19.2822 -0.271707 2.43654 -0.746413 2.36319 6.02065 0.0 0.0 0.0 4.04345 4.15454 -3.2043 -19.3518 0.302788 2.94016 34.3305 8.42257 -4.338 -35.9906 0.0 0.0 -0.0 0.0 -0.0 -0.346497 1.06498 -4.08904 2.60602 0.116055 0.383004 25.0368 -0.0609174 3.35705 -8.51616 0.0 0.0 0.0 0.0 0.0 
1060.93 719.193 -1417.32 -13.7481 86.1171 10.7016 1.91663 0.119046 1.92429 1.91869 -0.0036202 1.92797 1.91848 -0.345573 1.89676 1.91346 -0.0417372 1.92752 -12.7622 11.952 -3.5144 -13.1361 24.9225 0.278933 -0.0 0.0 -0.0 -0.246418 19.2942 1.88653 -11.7551 -28.3036 63.8613 0.263916 -7.44856 0.0171789 -44.8369 -3.47963 4.38601 1.5839 16.3712 16.6381 -0.0 0.0 -0.0 10.2128 -8.71036 -19.4001 -14.5056 41.6747 -62.526 1.05971 27.6966 -0.261245 14.7123 -0.281832 1.85309 -0.405778 8.47818 6.35233 0.0 0.0 0.0 4.73191 4.10989 -1.9472 -5.88604 0.197207 0.881412 31.9424 2.05997 -4.1014 -38.7833 0.0 0.0 -0.0 0.0 -0.0 0.143685 -0.0328159 -3.605 3.34364 0.152062 0.490435 24.2426 -1.11114 3.25803 -9.57034 0.0 0.0 0.0 0.0 0.0 
1059.86 722.388 -1410.56 -21.8618 87.0256 18.7256 1.78335 0.216805 1.87548 1.7853 0.0970458 1.88547 1.78853 -0.243157 1.87225 1.78364 0.0555274 1.88715 -12.6025 11.8226 -5.39436 -12.9443 25.8544 -1.60126 -0.0 0.0 -0.0 -0.820532 18.0616 0.866219 -10.7644 -26.7613 66.4905 0.346364 -9.73613 0.0294995 -45.0869 -3.50767 4.4016 1.98212 19.0025 20.0236 -0.0 0.0 -0.0 10.0333 -9.48016 -18.9773 -14.9918 41.9831 -61.2709 1.08677 28.2951 -0.273944 10.3987 -0.248705 1.30323 -0.363954 15.4959 9.05863 0.0 0.0 0.0 4.80163 1.33375 -1.33969 -3.13568 0.116346 0.467104 26.956 0.361357 -3.57419 -37.7683 0.0 0.0 -0.0 0.0 -0.0 1.35854 -4.19152 -2.94864 0.863422 0.0365161 0.127463 24.1317 -0.32266 3.24971 -8.1945 0.0 0.0 0.0 0.0 0.0 
1059.54 720.787 -1410.07 -46.1644 87.8382 43.1231 1.84837 0.181025 1.80956 1.85019 0.0655307 1.8174 1.85226 -0.259941 1.79992 1.84774 0.0275359 1.81838 -11.4124 11.1628 -5.23183 -11.6236 24.5198 -1.93806 -0.0 0.0 -0.0 -0.621795 16.6762 0.988159 -10.1836 -25.6876 67.8796 0.232664 -6.57478 0.013364 -45.373 -3.53985 4.4193 2.62805 23.1245 25.3059 -0.0 0.0 -0.0 10.3094 -10.7137 -19.353 -15.2311 41.8202 -60.5799 1.10145 28.6171 -0.280938 7.95527 -0.211611 0.993353 -0.399816 17.4873 10.1407 0.0 0.0 0.0 4.75109 0.532758 -1.30592 1.15041 -0.049079 -0.169709 24.7731 -3.65741 -3.35861 -35.1854 0.0 0.0 -0.0 0.0 -0.0 2.55226 -4.77481 -2.49151 -0.218366 -0.00892988 -0.0323206 25.7789 1.48956 3.45447 -8.58354 0.0 0.0 0.0 0.0 0.0 
1057.08 724.291 -1405.86 -83.2352 87.7213 79.9113 1.74038 0.263041 1.65109 1.74188 0.15746 1.66447 1.74654 -0.145212 1.66559 1.74268 0.119621 1.66762 -11.3235 10.7042 -3.10452 -11.5309 22.274 -0.03522 -0.0 0.0 -0.0 -1.21552 15.17 -0.157729 -8.92483 -24.3675 70.1328 0.31546 -8.88194 0.0245003 -44.8956 -3.48621 4.38968 3.07157 25.2447 28.6712 -0.0 0.0 -0.0 10.3397 -12.1744 -19.2236 -16.4748 41.0883 -58.7866 1.12525 29.1351 -0.292435 3.71739 -0.116063 0.460554 -0.169301 21.4071 10.2293 0.0 0.0 0.0 5.09469 -1.07932 -0.789344 2.9031 -0.13039 -0.426326 22.6535 -6.70742 -3.14173 -33.2399 0.0 0.0 -0.0 0.0 -0.0 4.59942 -7.1461 -1.60189 -1.5583 -0.0610192 -0.231352 26.1183 0.92166 3.48865 -9.04838 0.0 0.0 0.0 0.0 0.0 
1049.01 728.559 -1400.55 -79.1886 87.755 76.0111 1.6117 0.328383 1.57443 1.61305 0.227546 1.59213 1.61953 -0.0667623 1.60691 1.61598 0.187825 1.5973 -9.61942 10.6937 -4.00722 -9.71096 22.8196 -1.27666 -0.0 0.0 -0.0 -1.31399 14.0535 -0.481371 -8.75089 -22.8413 72.1966 0.28948 -8.16075 0.0206505 -43.3066 -3.30949 4.2879 3.38711 28.0505 31.2345 -0.0 0.0 -0.0 10.4917 -11.5782 -19.5819 -17.4228 40.4882 -57.6912 1.12919 29.2203 -0.294355 1.22695 -0.041612 0.151178 0.136154 21.7432 8.33624 0.0 0.0 0.0 5.37261 -2.26045 -0.94903 0.159926 -0.00661841 -0.0236495 22.681 -9.31337 -3.18318 -28.862 0.0 0.0 -0.0 0.0 -0.0 5.92661 -8.99807 -1.06023 -2.38835 -0.0909434 -0.355223 27.0731 1.04656 3.59779 -10.5142 0.0 0.0 0.0 0.0 0.0 
1046.33 728.776 -1395.32 -82.3259 87.016 79.3165 1.56132 0.308891 1.49286 1.56253 0.213281 1.50948 1.56831 -0.0670727 1.523 1.56512 0.17427 1.51448 -8.5221 9.85531 -3.55726 -8.54311 20.9156 -1.26301 -0.0 0.0 -0.0 -1.87825 13.5776 -1.47893 -8.89138 -21.9803 73.4815 0.436989 -12.2146 0.0467573 -40.831 -3.03997 4.1197 3.74916 27.5892 33.6218 -0.0 0.0 -0.0 10.4296 -11.4712 -19.481 -17.9344 40.0935 -56.9482 1.13881 29.4279 -0.299068 -1.44653 0.0532085 -0.177056 0.205208 21.0935 7.60222 0.0 0.0 0.0 6.71216 -2.49907 -0.792298 -0.631405 0.0254833 0.093545 20.5938 -8.58372 -2.91161 -24.9537 0.0 0.0 -0.0 0.0 -0.0 7.51907 -9.75881 -0.523741 -3.46425 -0.127052 -0.516392 27.7648 2.12498 3.68472 -11.0248 0.0 0.0 0.0 0.0 0.0 
